<svg width="481" height="376" viewBox="0 0 481 376" fill="none" xmlns="http://www.w3.org/2000/svg">
<path d="M2.30812 263.5L1.87207 271.904C3.79696 277.134 12.5965 287.481 32.3953 287.032C39.8199 287.219 56.319 284.623 62.9186 272.745V263.5" stroke="#FFB947" stroke-width="2" stroke-linecap="round"/>
<path d="M49.0077 259.954C49.0077 262.117 47.4177 264.286 44.384 265.971C41.3842 267.638 37.1723 268.7 32.4653 268.7C27.7583 268.7 23.5464 267.638 20.5466 265.971C17.5129 264.286 15.9229 262.117 15.9229 259.954C15.9229 257.791 17.5129 255.622 20.5466 253.937C23.5464 252.27 27.7583 251.208 32.4653 251.208C37.1723 251.208 41.3842 252.27 44.384 253.937C47.4177 255.622 49.0077 257.791 49.0077 259.954Z" stroke="#FFB947" stroke-width="2"/>
<path d="M62.93 260.511C62.93 264.829 59.7794 268.947 54.2272 272.042C48.7082 275.119 41.0161 277.054 32.465 277.054C23.914 277.054 16.2219 275.119 10.7028 272.042C5.15067 268.947 2 264.829 2 260.511C2 256.193 5.15067 252.076 10.7028 248.98C16.2219 245.903 23.914 243.969 32.465 243.969C41.0161 243.969 48.7082 245.903 54.2272 248.98C59.7794 252.076 62.93 256.193 62.93 260.511Z" stroke="#FAFAFA" stroke-width="2"/>
<path d="M86.315 213.791C85.6669 215.743 85.7039 220.262 91.0369 222.716C96.3698 225.171 176.031 271.526 215.194 294.397C216.491 294.955 219.805 295.512 222.694 293.281C225.582 291.05 273.153 263.902 296.577 250.607C297.41 250.05 299.021 248.432 298.799 246.424" stroke="#FFB947" stroke-width="2" stroke-linecap="round"/>
<path d="M88.727 211.986L163.958 168.438C164.887 167.901 166.032 167.9 166.961 168.437L296.045 242.993C298.049 244.15 298.043 247.045 296.034 248.195L218.957 292.285C218.022 292.82 216.871 292.812 215.943 292.265L88.7051 217.166C86.7286 216 86.7407 213.136 88.727 211.986Z" stroke="#FFB947" stroke-width="2" stroke-linecap="round"/>
<path d="M213.791 84.2849L221.5 79.9207C222.43 79.3942 223.57 79.4022 224.492 79.9417L237.327 87.4482C241.05 89.6255 245.837 87.9511 247.391 83.9281L278.062 4.52662C278.084 4.47165 278.109 4.41984 278.14 4.36987C279.762 1.77703 284.499 -1.73433 290.894 4.444C297.349 10.6814 304.713 43.4278 307.588 59.0213L316.214 98.8405C317.57 104.087 323.418 114.763 336.075 116.541C336.742 116.634 337.435 116.676 338.059 116.422C339.924 115.663 342.737 112.961 344.038 106.08C345.986 95.7775 354.89 95.499 360.733 102.46C366.576 109.422 367.689 123.066 378.262 127.521C386.721 131.086 389.763 127.336 390.227 125.015L394.4 111.371C395.421 107.751 399.13 101.681 405.808 106.359C414.156 112.206 414.434 117.776 417.216 127.521C419.442 135.318 429.274 176.808 433.911 196.579C434.82 200.31 438.762 208.504 447.309 211.971C447.648 212.109 447.983 212.263 448.302 212.443L464.518 221.64" stroke="#FFB947" stroke-width="2" stroke-linecap="round"/>
<path d="M231.668 94.3137L262.682 13.2496C262.704 13.1931 262.73 13.1399 262.762 13.0887C264.389 10.4961 269.141 6.98785 275.552 13.1647C282.027 19.4021 289.413 52.1485 292.296 67.742L300.948 107.561C302.051 111.82 306.124 119.657 314.409 123.407C319.113 125.537 325.074 124.894 327.217 120.196C327.864 118.777 328.437 117.003 328.854 114.801C330.808 104.498 339.738 104.22 345.599 111.181C351.459 118.143 352.575 131.787 363.18 136.242C371.664 139.806 374.715 136.057 375.18 133.736L379.366 120.092C380.389 116.472 384.11 110.401 390.808 115.08C399.18 120.927 399.459 126.496 402.25 136.242C404.482 144.039 414.343 185.529 418.994 205.299C419.906 209.031 423.86 217.226 432.434 220.693C432.773 220.83 433.107 220.983 433.425 221.163L449.692 230.36" stroke="#FAFAFA" stroke-width="2" stroke-linecap="round"/>
<path d="M123.529 116.553L136.179 109.544C139.561 107.67 143.679 107.71 147.025 109.648L173.239 124.837" stroke="#FFB947" stroke-width="2" stroke-linecap="round"/>
<path d="M380.796 299.256L475.895 243.111C477.848 241.957 477.864 239.136 475.923 237.961L457.61 226.872" stroke="#FFB947" stroke-width="2" stroke-linecap="round"/>
<path d="M165.959 294.023L140.099 309.132L245.1 371.477C249.8 374.267 255.645 374.281 260.357 371.512L332.247 329.276M332.247 329.276L320 321.758C318.094 320.588 318.093 317.818 319.998 316.646L347.922 299.463C348.883 298.872 350.094 298.87 351.057 299.458L379.129 316.59C381.066 317.772 381.04 320.593 379.082 321.74L350.981 338.194C350.057 338.735 348.914 338.743 347.983 338.214L332.247 329.276Z" stroke="#FFB947" stroke-width="2"/>
<path d="M140.971 280.362L214.791 323.086C217.282 324.528 220.355 324.521 222.839 323.067L296.4 280.017C298.319 278.895 298.393 276.148 296.537 274.924L276.581 261.756" stroke="#FFB947" stroke-width="2"/>
<path d="M53.7617 288.177L83.9338 306.1C87.6941 308.334 92.3718 308.345 96.1425 306.129L140.971 279.783L87.8605 248.256C86.0061 247.155 85.8842 244.515 87.6293 243.248L104.779 230.797" stroke="#FFB947" stroke-width="2"/>
<path d="M1.87231 271.785C0.689745 276.656 3.01806 287.867 20.7019 291.993C26.9786 293.426 42.2064 294.687 52.904 288.268C56.2698 286.167 63.7215 279.305 62.8483 272.657" stroke="#FFB947" stroke-width="2"/>
<path d="M125.975 317.391L100.864 332.336C97.6614 334.242 97.5941 338.854 100.739 340.853L125.954 356.873C127.575 357.903 129.643 357.913 131.274 356.9L155.981 341.551C159.119 339.601 159.133 335.04 156.006 333.072L131.196 317.456C129.606 316.455 127.59 316.43 125.975 317.391Z" stroke="#FFB947" stroke-width="2"/>
<path d="M42.2548 141.228L17.1428 156.174C13.9407 158.079 13.8734 162.692 17.0186 164.691L42.2335 180.711C43.8544 181.741 45.922 181.751 47.5534 180.738L72.2607 165.388C75.3985 163.439 75.4119 158.877 72.2857 156.91L47.4753 141.294C45.8855 140.293 43.869 140.268 42.2548 141.228Z" stroke="#FFB947" stroke-width="2"/>
<path d="M89.3475 113.321L64.2356 128.266C61.0335 130.172 60.9662 134.785 64.1114 136.783L89.3262 152.804C90.9472 153.834 93.0148 153.844 94.6461 152.831L119.354 137.481C122.491 135.532 122.505 130.97 119.378 129.003L94.5681 113.386C92.9783 112.386 90.9618 112.36 89.3475 113.321Z" stroke="#FFB947" stroke-width="2"/>
<path d="M88.9169 94.1421L62.4674 109.926C59.2722 111.833 59.2049 116.438 62.3431 118.437L88.8957 135.354C90.5192 136.388 92.5922 136.398 94.226 135.381L120.249 119.169C123.38 117.219 123.394 112.666 120.274 110.697L94.1478 94.2074C92.5555 93.2025 90.5337 93.1772 88.9169 94.1421Z" fill="#101010" stroke="#FAFAFA" stroke-width="2"/>
<path d="M88.9169 94.1421L62.4674 109.926C59.2722 111.833 59.2049 116.438 62.3431 118.437L88.8957 135.354C90.5192 136.388 92.5922 136.398 94.226 135.381L120.249 119.169C123.38 117.219 123.394 112.666 120.274 110.697L94.1478 94.2074C92.5555 93.2025 90.5337 93.1772 88.9169 94.1421Z" fill="#101010" stroke="#FAFAFA" stroke-width="2"/>
<path d="M183.947 72.3472L167.507 164.112C167.283 165.359 167.868 166.613 168.968 167.244L296.677 240.433C298.486 241.47 300.776 240.39 301.126 238.334L316.783 146.313C316.994 145.074 316.41 143.835 315.32 143.209L188.395 70.2751C186.595 69.2407 184.313 70.3036 183.947 72.3472Z" stroke="#FFB947" stroke-width="2" stroke-linecap="round"/>
<rect x="195.289" y="87.5928" width="6.68284" height="2.22761" rx="1.11381" transform="rotate(27.9263 195.289 87.5928)" fill="#FAFAFA"/>
<rect x="194.731" y="99.8447" width="8.90375" height="2.22761" rx="1.11381" transform="rotate(27.9263 194.731 99.8447)" fill="#FAFAFA"/>
<rect x="198.629" y="110.426" width="16.0007" height="2.22761" rx="1.11381" transform="rotate(27.9263 198.629 110.426)" fill="#FAFAFA"/>
<rect x="187.492" y="141.612" width="16.0007" height="2.22761" rx="1.11381" transform="rotate(27.9263 187.492 141.612)" fill="#FAFAFA"/>
<rect x="198.073" y="156.092" width="11.3616" height="2.22761" rx="1.11381" transform="rotate(27.9263 198.073 156.092)" fill="#FAFAFA"/>
<rect x="209.21" y="162.218" width="4.49396" height="2.22761" rx="1.11381" transform="rotate(27.9263 209.21 162.218)" fill="#FAFAFA"/>
<rect x="197.516" y="159.99" width="4.49396" height="2.22761" rx="1.11381" transform="rotate(27.9263 197.516 159.99)" fill="#FAFAFA"/>
<rect x="202.528" y="162.774" width="4.49396" height="2.22761" rx="1.11381" transform="rotate(27.9263 202.528 162.774)" fill="#FAFAFA"/>
<rect x="207.541" y="165.56" width="19.1685" height="2.22761" rx="1.11381" transform="rotate(27.9263 207.541 165.56)" fill="#FAFAFA"/>
<rect x="214.223" y="165.002" width="4.49396" height="2.22761" rx="1.11381" transform="rotate(27.9263 214.223 165.002)" fill="#FAFAFA"/>
<rect x="219.235" y="167.787" width="4.49396" height="2.22761" rx="1.11381" transform="rotate(27.9263 219.235 167.787)" fill="#FAFAFA"/>
<rect x="198.073" y="118.223" width="8.54027" height="2.22761" rx="1.11381" transform="rotate(27.9263 198.073 118.223)" fill="#FAFAFA"/>
<rect x="203.084" y="124.905" width="8.54027" height="2.22761" rx="1.11381" transform="rotate(27.9263 203.084 124.905)" fill="#FAFAFA"/>
<rect x="196.958" y="121.563" width="5.28802" height="2.22761" rx="1.11381" transform="rotate(27.9263 196.958 121.563)" fill="#FAFAFA"/>
<rect x="195.846" y="124.905" width="5.28802" height="2.22761" rx="1.11381" transform="rotate(27.9263 195.846 124.905)" fill="#FAFAFA"/>
<rect x="201.415" y="128.247" width="5.28802" height="2.22761" rx="1.11381" transform="rotate(27.9263 201.415 128.247)" fill="#FAFAFA"/>
<rect x="217.007" y="128.804" width="8.54027" height="2.22761" rx="1.11381" transform="rotate(27.9263 217.007 128.804)" fill="#FAFAFA"/>
<rect x="211.996" y="129.917" width="8.54027" height="2.22761" rx="1.11381" transform="rotate(27.9263 211.996 129.917)" fill="#FAFAFA"/>
<rect x="207.541" y="131.588" width="8.54027" height="2.22761" rx="1.11381" transform="rotate(27.9263 207.541 131.588)" fill="#FAFAFA"/>
<rect x="202.599" y="91.4912" width="3.78109" height="2.22761" rx="1.11381" transform="rotate(27.9263 202.599 91.4912)" fill="#FAFAFA"/>
<rect x="204.199" y="104.856" width="3.78109" height="2.22761" rx="1.11381" transform="rotate(27.9263 204.199 104.856)" fill="#FAFAFA"/>
<rect x="199.744" y="107.084" width="3.78109" height="2.22761" rx="1.11381" transform="rotate(27.9263 199.744 107.084)" fill="#FAFAFA"/>
<rect x="198.073" y="114.324" width="3.78109" height="2.22761" rx="1.11381" transform="rotate(27.9263 198.073 114.324)" fill="#FAFAFA"/>
<rect x="203.084" y="117.108" width="3.78109" height="2.22761" rx="1.11381" transform="rotate(27.9263 203.084 117.108)" fill="#FAFAFA"/>
<rect x="206.983" y="123.234" width="3.78109" height="2.22761" rx="1.11381" transform="rotate(27.9263 206.983 123.234)" fill="#FAFAFA"/>
<rect x="211.996" y="126.02" width="3.78109" height="2.22761" rx="1.11381" transform="rotate(27.9263 211.996 126.02)" fill="#FAFAFA"/>
<rect x="220.905" y="134.93" width="3.78109" height="2.22761" rx="1.11381" transform="rotate(27.9263 220.905 134.93)" fill="#FAFAFA"/>
<rect x="217.007" y="136.601" width="3.78109" height="2.22761" rx="1.11381" transform="rotate(27.9263 217.007 136.601)" fill="#FAFAFA"/>
<rect x="225.361" y="137.714" width="3.78109" height="2.22761" rx="1.11381" transform="rotate(27.9263 225.361 137.714)" fill="#FAFAFA"/>
<rect x="214.223" y="118.779" width="3.78109" height="2.22761" rx="1.11381" transform="rotate(27.9263 214.223 118.779)" fill="#FAFAFA"/>
<rect x="203.084" y="149.966" width="3.78109" height="2.22761" rx="1.11381" transform="rotate(27.9263 203.084 149.966)" fill="#FAFAFA"/>
<rect x="197.516" y="151.08" width="6.36475" height="2.22761" rx="1.11381" transform="rotate(27.9263 197.516 151.08)" fill="#FAFAFA"/>
<rect x="204.199" y="154.979" width="6.36475" height="2.22761" rx="1.11381" transform="rotate(27.9263 204.199 154.979)" fill="#FAFAFA"/>
<rect x="210.881" y="158.876" width="6.36475" height="2.22761" rx="1.11381" transform="rotate(27.9263 210.881 158.876)" fill="#FAFAFA"/>
<rect x="218.122" y="162.774" width="6.36475" height="2.22761" rx="1.11381" transform="rotate(27.9263 218.122 162.774)" fill="#FAFAFA"/>
<rect x="192.503" y="148.295" width="3.78109" height="2.22761" rx="1.11381" transform="rotate(27.9263 192.503 148.295)" fill="#FAFAFA"/>
<rect x="224.247" y="124.905" width="8.84451" height="2.22761" rx="1.11381" transform="rotate(27.9263 224.247 124.905)" fill="#FAFAFA"/>
<rect x="204.755" y="109.869" width="3.78109" height="2.22761" rx="1.11381" transform="rotate(27.9263 204.755 109.869)" fill="#FAFAFA"/>
<rect x="219.235" y="121.563" width="3.78109" height="2.22761" rx="1.11381" transform="rotate(27.9263 219.235 121.563)" fill="#FAFAFA"/>
<rect x="208.097" y="152.75" width="3.78109" height="2.22761" rx="1.11381" transform="rotate(27.9263 208.097 152.75)" fill="#FAFAFA"/>
<rect x="233.714" y="130.475" width="3.78109" height="2.22761" rx="1.11381" transform="rotate(27.9263 233.714 130.475)" fill="#FAFAFA"/>
<rect x="207.054" y="94.2754" width="3.78109" height="2.22761" rx="1.11381" transform="rotate(27.9263 207.054 94.2754)" fill="#FAFAFA"/>
<path d="M345.602 280.383L322.816 293.827C318.266 296.512 318.216 303.077 322.725 305.83L342.959 318.187C346.733 320.492 351.469 320.534 355.284 318.297L376.429 305.895C381.08 303.167 381.03 296.425 376.338 293.767L352.61 280.322C350.432 279.087 347.759 279.111 345.602 280.383Z" fill="#101010" stroke="#FFB947" stroke-width="2"/>
<path d="M347.79 284.438L326.679 296.874C324.726 298.024 324.705 300.84 326.64 302.02L347.751 314.893C348.694 315.468 349.876 315.478 350.829 314.92L372.811 302.048C374.807 300.879 374.785 297.987 372.772 296.848L350.79 284.411C349.857 283.884 348.713 283.894 347.79 284.438Z" fill="#101010" stroke="#FAFAFA" stroke-width="2"/>
</svg>
